<?xml version="1.0" standalone="no"?>
<!DOCTYPE svg PUBLIC "-//W3C//DTD SVG 20010904//EN"
 "http://www.w3.org/TR/2001/REC-SVG-20010904/DTD/svg10.dtd">
<svg version="1.0" xmlns="http://www.w3.org/2000/svg"
 width="512.000000pt" height="512.000000pt" viewBox="0 0 512.000000 512.000000"
 preserveAspectRatio="xMidYMid meet">
<metadata>
Created by potrace 1.14, written by Peter Selinger 2001-2017
</metadata>
<g transform="translate(0.000000,512.000000) scale(0.100000,-0.100000)"
fill="#000000" stroke="none">
<path d="M0 2560 l0 -2560 2560 0 2560 0 0 2560 0 2560 -2560 0 -2560 0 0
-2560z m2190 640 c8 0 24 10 37 21 18 18 25 20 38 9 8 -7 15 -17 15 -23 0 -6
-115 -123 -256 -262 l-256 -251 35 -39 35 -39 292 288 293 287 43 -42 c24 -24
44 -48 44 -55 0 -6 -112 -122 -250 -258 -137 -135 -250 -250 -250 -255 0 -15
51 -71 63 -71 7 0 115 102 241 225 l230 225 230 -230 230 -230 40 39 39 39
-256 255 c-142 140 -257 258 -257 264 0 14 77 86 88 82 6 -2 137 -128 291
-279 155 -151 285 -276 290 -278 8 -3 71 63 71 74 0 4 -116 121 -257 259 -228
224 -256 254 -244 269 18 22 38 20 51 -4 14 -25 24 -25 60 2 16 12 32 20 34
17 3 -2 106 -105 231 -228 l225 -225 35 34 c19 19 35 39 35 44 0 6 -50 61
-111 122 l-111 111 49 46 48 46 130 -128 c192 -190 305 -306 305 -316 0 -5
-10 -19 -21 -32 l-22 -22 83 -86 84 -85 -22 -23 c-12 -13 -22 -28 -22 -33 0
-5 23 -33 52 -63 l51 -53 -221 -221 -221 -221 -31 29 -30 29 -23 -22 c-29 -27
-37 -27 -71 -1 l-27 22 -15 -22 c-19 -27 -42 -27 -71 1 l-23 22 -28 -27 -27
-26 -33 26 -33 25 -23 -21 c-28 -26 -38 -26 -61 -1 -23 25 -37 25 -53 0 -16
-26 -40 -25 -69 2 l-23 22 -28 -27 -27 -26 -32 25 -33 25 -22 -20 c-12 -12
-26 -21 -32 -21 -14 0 -86 71 -86 85 0 6 31 41 69 79 l70 69 32 -27 32 -27 28
27 29 28 29 -28 28 -27 32 27 32 27 23 -22 c30 -28 36 -27 76 14 l33 34 -292
288 c-161 159 -298 289 -305 291 -6 1 -144 -127 -306 -286 l-294 -289 33 -42
34 -42 26 25 c33 31 42 32 66 6 23 -25 33 -25 62 2 l23 21 23 -21 c29 -27 32
-27 69 -1 l30 22 75 -75 74 -74 -38 -42 c-44 -48 -57 -51 -90 -20 l-23 22 -28
-27 -27 -26 -33 26 -33 25 -23 -21 c-28 -26 -38 -26 -61 -1 -23 25 -37 25 -60
0 -23 -25 -33 -25 -62 2 l-23 21 -23 -21 c-29 -27 -53 -28 -69 -2 -17 26 -30
25 -58 -5 l-23 -25 -32 25 c-32 24 -33 24 -50 5 -23 -26 -43 -25 -72 2 l-23
21 -23 -21 c-13 -12 -27 -22 -31 -22 -12 0 -436 413 -436 425 0 6 23 33 50 60
28 27 50 53 50 58 0 4 -12 19 -27 33 l-27 25 82 81 c45 45 82 86 82 91 0 6
-10 21 -22 34 l-22 24 216 215 c168 168 220 215 234 210 11 -3 34 -25 53 -47
l33 -41 -111 -110 c-61 -61 -111 -114 -111 -118 0 -3 16 -21 35 -40 l35 -34
219 219 c121 120 226 222 233 226 8 5 21 0 33 -11 12 -11 27 -20 35 -20z"/>
</g>
</svg>
